<svg xmlns="http://www.w3.org/2000/svg" viewBox="0 0 38.61 49.88"><defs><style>.cls-1{fill:#060606;}.cls-2{fill:#f8f8f8;}.cls-3{fill:none;stroke:#000;stroke-miterlimit:10;stroke-width:5px;}</style></defs><g id="Capa_2" data-name="Capa 2"><g id="Capa_2-2" data-name="Capa 2"><path class="cls-1" d="M31.31,12.46A12.49,12.49,0,0,1,18.63,25,12.68,12.68,0,0,1,6.37,12.49,12.58,12.58,0,0,1,19.1,0,12.42,12.42,0,0,1,31.31,12.46Z"/><path class="cls-2" d="M26.27,12.3a7.42,7.42,0,0,1-7,7.65,7.6,7.6,0,0,1-7.87-7.29,7.43,7.43,0,1,1,14.85-.36Z"/><path class="cls-3" d="M19.11,28.77c5.44,0,11.19,1.9,14.6,5.48C35.26,35.88,36.4,37.8,36,40.1a5.62,5.62,0,0,1-2.88,3.79C26.7,48.09,14.21,48.53,6.37,45c-1.85-.83-3-1.78-3.6-3.43C2,39.22,3,37.11,4.62,35.17A19,19,0,0,1,19.11,28.77Z"/></g></g></svg>