<svg xmlns="http://www.w3.org/2000/svg" width="24.017" height="35.816" viewBox="0 0 24.017 35.816">
  <path id="Trazado_2" data-name="Trazado 2" d="M1203.776,42.056h-3.726v14.13s.217,10.31,11.454,9.878,12.563-9.878,12.563-9.878V37.23s-.6-6.887-9.024-6.968-8.984,6.968-8.984,6.968V54.8s.023,4.491,5.445,4.745a5.974,5.974,0,0,0,6.349-4.745V40.065h-3.859V53.994s-.053,1.476-2.084,1.407-2.114-1.407-2.114-1.407V37.884s-.389-4.311,5.058-4.276,5.384,4.276,5.384,4.276v18.3s-1.131,5.83-8.733,5.639-7.728-5.639-7.728-5.639Z" transform="translate(-1200.049 -30.261)" fill="#bec1c1"/>
</svg>
