<svg xmlns="http://www.w3.org/2000/svg" viewBox="0 0 314.38 209.89"><defs><style>.cls-1{fill:none;stroke:#000;stroke-miterlimit:10;stroke-width:14.37px;}</style></defs><g id="Capa_2" data-name="Capa 2"><g id="Capa_1-2" data-name="Capa 1"><line class="cls-1" x1="152.95" y1="156.17" x2="152.95" y2="88.1"/><polyline class="cls-1" points="117.25 124.06 152.95 82.8 187.64 124.06"/><path class="cls-1" d="M44.07,201.34c2.7.37,10.78.64,10.78.64s140,1.63,186.65,0c3.3-.12,10.27-.73,13.16-1.25a40.94,40.94,0,0,0,13.17-4.11c15.14-8.08,39.36-26.54,39.36-59.23,0-44.79-37-72.65-70.57-68.75-6.51-27.86-30.47-61.45-94.27-61.45,0,0-89.58,0-94,97.39C18.65,110.05,7.2,132.45,7.2,158c0,0-1.29,27.37,27,40.45A34.91,34.91,0,0,0,44.07,201.34Z"/></g></g></svg>