<svg xmlns="http://www.w3.org/2000/svg" viewBox="0 0 37.78 48.89"><defs><style>.cls-1,.cls-3{fill:#fff;}.cls-1{stroke:#000;stroke-miterlimit:10;stroke-width:3.89px;}.cls-2{fill:#080808;}</style></defs><g id="Capa_2" data-name="Capa 2"><g id="Capa_1-2" data-name="Capa 1"><path class="cls-1" d="M34.79,46.87c.33.33,1-.47,1-1V3a1,1,0,0,0-1-1H3A1,1,0,0,0,2,3V45.83c0,.57.51,1.26,1,1,1.18-.48,4.09-5.65,4.86-5.65s4.26,5.65,5.18,5.65,4.89-6.29,5.86-6.24c1.35.07,5.23,6.24,6,6.24s4-5.52,4.93-5.52S33.66,45.74,34.79,46.87Z"/><path class="cls-2" d="M18.75,29.25a7.47,7.47,0,0,1-7.16-7.57,7.57,7.57,0,0,1,7.25-7A7.36,7.36,0,0,1,26.2,22,7.27,7.27,0,0,1,18.75,29.25Z"/><path class="cls-3" d="M18.84,24.53a2.64,2.64,0,0,1-2.53-2.68,2.68,2.68,0,0,1,2.56-2.49A2.6,2.6,0,0,1,21.47,22,2.56,2.56,0,0,1,18.84,24.53Z"/></g></g></svg>