<svg xmlns="http://www.w3.org/2000/svg" viewBox="0 0 174.39 170.32"><defs><style>.cls-1,.cls-2{fill:none;stroke:#9f9d9d;stroke-linecap:round;stroke-width:15.6px;}.cls-1{stroke-miterlimit:10;}.cls-2{stroke-linejoin:round;}</style></defs><g id="Capa_2" data-name="Capa 2"><g id="Capa_3" data-name="Capa 3"><path class="cls-1" d="M88.88,57.26a27.9,27.9,0,0,1,27.9,27.9"/><path class="cls-1" d="M88.88,113.06A27.9,27.9,0,0,1,61,85.16"/><path class="cls-2" d="M70.19,7.8h39s-4.11,18,6.07,27.73,31.84-4.12,31.84-4.12c7.8,11.05,19.5,31,19.5,31-11.91,8.23-20.36,16.75-19.28,25.71S166.59,109,166.59,109c-4.77,5.85-20.8,28.59-20.8,28.59-6.5-4.55-21.23-9.31-29.46-2.6s-7.15,27.55-7.15,27.55H68c.44-13,1.09-18.23-8-27.76s-29.25,5.63-29.25,5.63c-6.28-7.58-23-34.88-23-34.88C14.73,101,29.46,93.59,29,82.75S7.8,62,7.8,62c6.07-11.27,22.75-33.58,22.75-33.58,10,7.15,23.83,11.7,30.76,6.07S71.49,18.2,70.19,7.8Z"/></g></g></svg>