<svg xmlns="http://www.w3.org/2000/svg" viewBox="0 0 47.15 37.35"><defs><style>.cls-1{fill:#060606;}.cls-2{fill:#f8f8f8;}.cls-3,.cls-4{fill:none;stroke:#000;stroke-miterlimit:10;}.cls-3{stroke-width:4.66px;}.cls-4{stroke-width:4px;}</style></defs><g id="Capa_2" data-name="Capa 2"><g id="Capa_2-2" data-name="Capa 2"><path class="cls-1" d="M42.87,9.46A9.47,9.47,0,0,1,33.25,19,9.61,9.61,0,0,1,24,9.48,9.54,9.54,0,0,1,33.6,0,9.43,9.43,0,0,1,42.87,9.46Z"/><path class="cls-2" d="M39,9.34a5.63,5.63,0,0,1-5.29,5.8,5.76,5.76,0,0,1-6-5.54A5.66,5.66,0,0,1,33.1,3.81,5.6,5.6,0,0,1,39,9.34Z"/><path class="cls-3" d="M33.63,22.78c3.58,0,7.37,1.24,9.61,3.6a4.54,4.54,0,0,1,1.53,3.85,3.67,3.67,0,0,1-1.89,2.49c-4.25,2.77-12.47,3.05-17.63.74a3.79,3.79,0,0,1-2.37-2.25c-.52-1.56.17-2.95,1.22-4.22A12.47,12.47,0,0,1,33.63,22.78Z"/><path class="cls-1" d="M19.4,9.83a7.46,7.46,0,0,1-7.57,7.48A7.58,7.58,0,0,1,4.5,9.85a7.51,7.51,0,0,1,7.61-7.46A7.41,7.41,0,0,1,19.4,9.83Z"/><path class="cls-2" d="M14.89,9.77a2.93,2.93,0,0,1-2.76,3A3,3,0,0,1,9,9.91a3,3,0,0,1,2.78-3A2.92,2.92,0,0,1,14.89,9.77Z"/><path class="cls-4" d="M11.83,21.29c3.23,0,6.63,1.12,8.65,3.24A4.09,4.09,0,0,1,21.86,28a3.28,3.28,0,0,1-1.7,2.24C16.33,32.73,8.94,33,4.29,30.91a3.41,3.41,0,0,1-2.13-2c-.47-1.4.15-2.66,1.1-3.8A11.21,11.21,0,0,1,11.83,21.29Z"/></g></g></svg>